# xmcd
#
# Track frame offsets:
#	150
#	9375
#	23144
#	33879
#	42869
#	52893
#	70344
#	84029
#	95191
#	105967
#	117524
#	128523
#	138458
#	150374
#	163543
#	175433
#	186353
#	198155
#	211222
#	222084
#
# Disc length: 3200 seconds
#
# Revision: 0
# Processed by: cddbd v1.5.2PL0 Copyright (c) Steve Scherf et al.
# Submitted via: dBpowerAMP V4.0
#
DISCID=000c7e14
DTITLE=Faron Young - 20 Greatest Hits
DYEAR=2007
DGENRE=Country
TTITLE0=Hello Walls
TTITLE1=It's Four In The Morning
TTITLE2=Wine Me Up
TTITLE3=Live Fast, Love Hard, Die Young
TTITLE4=If You Ain't Lovin' (You Ain't Livin')
TTITLE5=Sweet Dreams
TTITLE6=I Miss You Already (And You're Not Even Gone)
TTITLE7=Goin' Steady
TTITLE8=Face To The Wall
TTITLE9=She Went A Little Bit Farther
TTITLE10=Leavin' And Sayin' Goodbye
TTITLE11=Unmitigated Gall
TTITLE12=I Had Too Much To Dream Last Night
TTITLE13=Three Days
TTITLE14=Congratulations
TTITLE15=Just What I Had In Mind
TTITLE16=If I Ever Fall In Love With A Honky Tonk Girl
TTITLE17=Step Aside
TTITLE18=That Over Thirty Look
TTITLE19=Here's To You
EXTD=
EXTT0=
EXTT1=
EXTT2=
EXTT3=
EXTT4=
EXTT5=
EXTT6=
EXTT7=
EXTT8=
EXTT9=
EXTT10=
EXTT11=
EXTT12=
EXTT13=
EXTT14=
EXTT15=
EXTT16=
EXTT17=
EXTT18=
EXTT19=
PLAYORDER=
